<?xml version="1.0" standalone="no"?>
<!DOCTYPE svg PUBLIC "-//W3C//DTD SVG 20010904//EN"
 "http://www.w3.org/TR/2001/REC-SVG-20010904/DTD/svg10.dtd">
<svg version="1.0" xmlns="http://www.w3.org/2000/svg"
 width="500.000000pt" height="500.000000pt" viewBox="0 0 500.000000 500.000000"
 preserveAspectRatio="xMidYMid meet">
<metadata>
Created by potrace 1.14, written by Peter Selinger 2001-2017
</metadata>
<g transform="translate(0.000000,500.000000) scale(0.100000,-0.100000)"
fill="#000000" stroke="none">
<path d="M0 2500 l0 -2500 2500 0 2500 0 0 2500 0 2500 -2500 0 -2500 0 0
-2500z m1445 861 c-6 -5 -89 -36 -185 -70 -96 -34 -215 -77 -265 -96 -313
-119 -415 -144 -423 -100 -3 13 1 15 17 10 13 -4 128 29 323 94 328 108 517
168 533 170 6 1 6 -2 0 -8z m5 -35 c0 -8 -15 -19 -32 -26 -137 -48 -340 -116
-428 -141 -58 -17 -133 -41 -167 -55 -34 -13 -70 -24 -80 -23 -10 0 52 25 137
55 85 29 198 70 250 90 135 52 304 113 313 113 4 1 7 -5 7 -13z m59 -20 c-6
-6 -373 -126 -384 -125 -6 0 66 26 158 59 93 32 171 61 175 64 3 3 17 6 30 6
14 0 23 -2 21 -4z m41 -25 c0 -11 -9 -14 -113 -36 -43 -10 -80 -15 -82 -13 -3
3 28 16 68 31 74 27 127 34 127 18z m280 -1 c0 -5 -4 -10 -10 -10 -5 0 -10 5
-10 10 0 6 5 10 10 10 6 0 10 -4 10 -10z m40 0 c0 -5 -4 -10 -10 -10 -5 0 -10
5 -10 10 0 6 5 10 10 10 6 0 10 -4 10 -10z m40 0 c0 -5 -4 -10 -10 -10 -5 0
-10 5 -10 10 0 6 5 10 10 10 6 0 10 -4 10 -10z m40 0 c0 -5 -4 -10 -10 -10 -5
0 -10 5 -10 10 0 6 5 10 10 10 6 0 10 -4 10 -10z m40 0 c0 -5 -4 -10 -10 -10
-5 0 -10 5 -10 10 0 6 5 10 10 10 6 0 10 -4 10 -10z m40 0 c0 -5 -4 -10 -10
-10 -5 0 -10 5 -10 10 0 6 5 10 10 10 6 0 10 -4 10 -10z m40 0 c0 -5 -4 -10
-10 -10 -5 0 -10 5 -10 10 0 6 5 10 10 10 6 0 10 -4 10 -10z m40 0 c0 -5 -4
-10 -10 -10 -5 0 -10 5 -10 10 0 6 5 10 10 10 6 0 10 -4 10 -10z m40 0 c0 -5
-4 -10 -10 -10 -5 0 -10 5 -10 10 0 6 5 10 10 10 6 0 10 -4 10 -10z m40 0 c0
-5 -4 -10 -10 -10 -5 0 -10 5 -10 10 0 6 5 10 10 10 6 0 10 -4 10 -10z m40 0
c0 -5 -4 -10 -10 -10 -5 0 -10 5 -10 10 0 6 5 10 10 10 6 0 10 -4 10 -10z m40
0 c0 -5 -4 -10 -10 -10 -5 0 -10 5 -10 10 0 6 5 10 10 10 6 0 10 -4 10 -10z
m40 0 c0 -5 -4 -10 -10 -10 -5 0 -10 5 -10 10 0 6 5 10 10 10 6 0 10 -4 10
-10z m40 0 c0 -5 -4 -10 -10 -10 -5 0 -10 5 -10 10 0 6 5 10 10 10 6 0 10 -4
10 -10z m40 0 c0 -5 -4 -10 -10 -10 -5 0 -10 5 -10 10 0 6 5 10 10 10 6 0 10
-4 10 -10z m40 0 c0 -5 -4 -10 -10 -10 -5 0 -10 5 -10 10 0 6 5 10 10 10 6 0
10 -4 10 -10z m40 0 c0 -5 -4 -10 -10 -10 -5 0 -10 5 -10 10 0 6 5 10 10 10 6
0 10 -4 10 -10z m40 0 c0 -5 -4 -10 -10 -10 -5 0 -10 5 -10 10 0 6 5 10 10 10
6 0 10 -4 10 -10z m40 0 c0 -5 -4 -10 -10 -10 -5 0 -10 5 -10 10 0 6 5 10 10
10 6 0 10 -4 10 -10z m40 0 c0 -5 -4 -10 -10 -10 -5 0 -10 5 -10 10 0 6 5 10
10 10 6 0 10 -4 10 -10z m40 0 c0 -5 -4 -10 -10 -10 -5 0 -10 5 -10 10 0 6 5
10 10 10 6 0 10 -4 10 -10z m40 0 c0 -5 -4 -10 -10 -10 -5 0 -10 5 -10 10 0 6
5 10 10 10 6 0 10 -4 10 -10z m40 0 c0 -5 -4 -10 -10 -10 -5 0 -10 5 -10 10 0
6 5 10 10 10 6 0 10 -4 10 -10z m40 0 c0 -5 -4 -10 -10 -10 -5 0 -10 5 -10 10
0 6 5 10 10 10 6 0 10 -4 10 -10z m40 0 c0 -5 -4 -10 -10 -10 -5 0 -10 5 -10
10 0 6 5 10 10 10 6 0 10 -4 10 -10z m40 0 c0 -5 -4 -10 -10 -10 -5 0 -10 5
-10 10 0 6 5 10 10 10 6 0 10 -4 10 -10z m40 0 c0 -5 -4 -10 -10 -10 -5 0 -10
5 -10 10 0 6 5 10 10 10 6 0 10 -4 10 -10z m40 0 c0 -5 -4 -10 -10 -10 -5 0
-10 5 -10 10 0 6 5 10 10 10 6 0 10 -4 10 -10z m40 0 c0 -5 -4 -10 -10 -10 -5
0 -10 5 -10 10 0 6 5 10 10 10 6 0 10 -4 10 -10z m40 0 c0 -5 -4 -10 -10 -10
-5 0 -10 5 -10 10 0 6 5 10 10 10 6 0 10 -4 10 -10z m40 0 c0 -5 -4 -10 -10
-10 -5 0 -10 5 -10 10 0 6 5 10 10 10 6 0 10 -4 10 -10z m40 0 c0 -5 -4 -10
-10 -10 -5 0 -10 5 -10 10 0 6 5 10 10 10 6 0 10 -4 10 -10z m40 0 c0 -5 -4
-10 -10 -10 -5 0 -10 5 -10 10 0 6 5 10 10 10 6 0 10 -4 10 -10z m40 0 c0 -5
-4 -10 -10 -10 -5 0 -10 5 -10 10 0 6 5 10 10 10 6 0 10 -4 10 -10z m40 0 c0
-5 -4 -10 -10 -10 -5 0 -10 5 -10 10 0 6 5 10 10 10 6 0 10 -4 10 -10z m40 0
c0 -5 -4 -10 -10 -10 -5 0 -10 5 -10 10 0 6 5 10 10 10 6 0 10 -4 10 -10z m40
0 c0 -5 -4 -10 -10 -10 -5 0 -10 5 -10 10 0 6 5 10 10 10 6 0 10 -4 10 -10z
m40 0 c0 -5 -4 -10 -10 -10 -5 0 -10 5 -10 10 0 6 5 10 10 10 6 0 10 -4 10
-10z m40 0 c0 -5 -4 -10 -10 -10 -5 0 -10 5 -10 10 0 6 5 10 10 10 6 0 10 -4
10 -10z m40 0 c0 -5 -4 -10 -10 -10 -5 0 -10 5 -10 10 0 6 5 10 10 10 6 0 10
-4 10 -10z m40 0 c0 -5 -4 -10 -10 -10 -5 0 -10 5 -10 10 0 6 5 10 10 10 6 0
10 -4 10 -10z m40 0 c0 -5 -4 -10 -10 -10 -5 0 -10 5 -10 10 0 6 5 10 10 10 6
0 10 -4 10 -10z m40 0 c0 -5 -4 -10 -10 -10 -5 0 -10 5 -10 10 0 6 5 10 10 10
6 0 10 -4 10 -10z m40 0 c0 -5 -4 -10 -10 -10 -5 0 -10 5 -10 10 0 6 5 10 10
10 6 0 10 -4 10 -10z m40 0 c0 -5 -4 -10 -10 -10 -5 0 -10 5 -10 10 0 6 5 10
10 10 6 0 10 -4 10 -10z m40 0 c0 -5 -4 -10 -10 -10 -5 0 -10 5 -10 10 0 6 5
10 10 10 6 0 10 -4 10 -10z m40 0 c0 -5 -4 -10 -10 -10 -5 0 -10 5 -10 10 0 6
5 10 10 10 6 0 10 -4 10 -10z m-2163 -67 c-159 -35 -595 -123 -604 -122 -11 1
422 114 567 148 103 24 116 26 127 12 10 -14 -2 -19 -90 -38z m110 1 c-3 -4
-35 -13 -69 -20 l-63 -13 54 5 c30 3 68 7 85 10 24 3 27 3 11 -5 -26 -11 -482
-97 -597 -112 -212 -27 -70 9 256 66 72 12 122 25 111 27 -11 3 3 3 30 1 38
-2 44 -1 25 6 l-25 9 25 2 c14 1 45 7 70 14 49 15 97 20 87 10z m-602 -69
c-55 -19 -107 -33 -115 -33 -8 0 30 15 85 33 55 18 107 33 115 33 8 0 -30 -15
-85 -33z m684 -192 c-1 -126 -6 -428 -12 -673 l-12 -445 -55 -11 c-299 -63
-877 -174 -904 -174 -3 0 -6 308 -6 685 l0 684 33 5 c17 3 115 17 217 31 102
14 284 46 405 70 204 41 253 49 313 53 l22 2 -1 -227z m-1139 134 c0 -24 56
-68 94 -74 24 -4 34 -9 28 -15 -15 -15 -76 8 -112 42 -29 27 -40 60 -20 60 6
0 10 -6 10 -13z m2830 -159 l0 -163 88 88 c87 87 89 88 133 85 l44 -3 -67 -71
c-38 -39 -68 -73 -68 -77 0 -3 34 -58 75 -122 l75 -115 -50 0 -50 0 -58 91
-59 90 -31 -36 c-28 -31 -32 -43 -32 -90 l0 -55 -40 0 -40 0 0 270 0 270 40 0
40 0 0 -162z m-2705 132 c-3 -5 -12 -10 -18 -10 -7 0 -6 4 3 10 19 12 23 12
15 0z m232 4 c-3 -3 -12 -4 -19 -1 -8 3 -5 6 6 6 11 1 17 -2 13 -5z m1253 -10
c17 -4 47 -21 66 -39 29 -28 34 -39 34 -80 0 -40 -5 -52 -35 -82 -39 -39 -41
-43 -22 -43 7 0 26 -14 43 -31 25 -27 29 -38 29 -90 0 -56 -3 -63 -32 -89 -45
-41 -90 -50 -240 -50 l-133 0 0 255 0 255 129 0 c71 0 143 -3 161 -6z m-1563
-63 c12 -6 36 -11 52 -11 l31 0 -2 -672 -3 -673 -23 -3 c-30 -4 -101 44 -107
72 -2 12 -6 317 -9 680 l-5 658 22 -20 c12 -11 32 -25 44 -31z m2036 -67 c78
-39 110 -93 110 -179 0 -66 -15 -105 -60 -147 -38 -36 -73 -48 -140 -48 -144
0 -232 117 -193 256 15 53 67 110 114 123 51 15 134 12 169 -5z m463 -3 c23
-10 54 -36 70 -57 26 -34 29 -45 29 -119 0 -74 -3 -85 -29 -119 -36 -48 -96
-75 -164 -76 -90 0 -151 35 -183 105 -49 107 -2 232 102 274 41 16 131 12 175
-8z m-646 -611 l0 -160 -25 0 -25 0 0 160 0 160 25 0 25 0 0 -160z m130 0 l0
-160 -25 0 -25 0 0 160 0 160 25 0 25 0 0 -160z m787 144 c3 -8 -2 -23 -11
-32 -14 -15 -18 -15 -31 -1 -9 9 -13 23 -9 32 8 21 43 22 51 1z m-1333 -18
c41 -17 52 -32 35 -52 -10 -12 -15 -12 -33 -1 -35 23 -67 27 -101 13 -70 -30
-88 -114 -36 -167 24 -23 38 -29 73 -29 24 0 53 6 64 14 13 10 23 11 31 4 20
-16 16 -27 -19 -48 -84 -51 -206 -1 -228 94 -28 124 94 222 214 172z m1166
-36 c0 -28 3 -30 35 -30 28 0 35 -4 35 -20 0 -16 -7 -20 -35 -20 l-36 0 3 -67
c3 -68 3 -68 32 -68 32 0 47 -22 25 -36 -8 -5 -28 -9 -46 -9 -46 0 -63 29 -63
112 0 54 -3 68 -15 68 -8 0 -15 9 -15 20 0 11 7 20 15 20 10 0 15 10 15 30 0
25 4 30 25 30 21 0 25 -5 25 -30z m-915 -34 c61 -26 82 -102 45 -164 -32 -52
-101 -68 -161 -36 -29 15 -59 65 -59 100 0 33 32 83 63 98 40 19 68 20 112 2z
m504 3 c36 -13 61 -53 61 -98 l0 -30 -87 -3 -88 -3 23 -22 c24 -25 80 -31 100
-11 10 10 16 9 28 -4 15 -15 14 -17 -14 -32 -17 -9 -49 -16 -71 -16 -110 0
-151 154 -57 211 36 22 60 24 105 8z m266 -3 c37 -16 42 -25 24 -43 -8 -8 -20
-7 -45 3 -80 33 -139 -52 -78 -113 20 -20 31 -24 57 -19 56 11 70 11 74 -1 6
-18 -51 -43 -97 -43 -79 0 -129 85 -96 164 24 58 92 80 161 52z m311 -86 c4
-110 0 -130 -27 -130 -18 0 -19 8 -19 116 0 111 1 115 21 112 19 -3 21 -11 25
-98z m224 85 c40 -21 60 -53 60 -97 0 -75 -43 -118 -120 -118 -34 0 -48 6 -76
34 -28 28 -34 42 -34 76 0 52 13 76 53 100 38 24 78 25 117 5z m166 1 c5 -12
9 -12 32 0 41 21 80 17 107 -11 23 -22 25 -32 25 -115 0 -89 0 -90 -25 -90
-25 0 -25 1 -25 78 0 85 -8 102 -50 102 -43 0 -59 -27 -62 -105 -3 -64 -5 -70
-25 -73 -23 -3 -23 -2 -23 112 0 110 1 116 20 116 11 0 23 -6 26 -14z m-1885
-379 c9 -31 13 -57 8 -57 -5 0 -12 7 -15 15 -4 8 -15 15 -25 15 -10 0 -19 -7
-19 -15 0 -8 -4 -15 -10 -15 -13 0 -13 7 6 69 9 30 20 51 27 48 6 -2 19 -29
28 -60z m129 33 c-1 -23 -2 -24 -14 -7 -17 22 -33 22 -45 -1 -23 -43 15 -81
48 -49 11 10 13 9 9 -2 -2 -8 -12 -19 -21 -25 -27 -17 -51 5 -55 48 -4 46 11
66 49 63 24 -2 29 -6 29 -27z m120 3 c0 -26 -15 -31 -24 -8 -15 40 -55 -2 -41
-45 7 -22 41 -27 48 -7 2 6 8 9 12 5 14 -13 -18 -39 -44 -36 -35 4 -51 56 -28
92 23 34 77 34 77 -1z m110 17 c0 -5 -11 -10 -25 -10 -16 0 -25 -6 -25 -15 0
-8 9 -15 20 -15 11 0 20 -4 20 -10 0 -5 -9 -10 -19 -10 -10 0 -21 -7 -25 -15
-4 -11 2 -15 24 -15 17 0 30 -4 30 -10 0 -5 -16 -10 -35 -10 l-35 0 0 60 0 60
35 0 c19 0 35 -4 35 -10z m120 -12 c0 -10 -4 -18 -10 -18 -5 0 -10 5 -10 10 0
6 -7 10 -15 10 -23 0 -18 -24 8 -35 14 -7 22 -19 22 -35 0 -22 -5 -25 -37 -27
-39 -1 -44 3 -29 25 6 10 10 10 21 -2 7 -9 16 -13 21 -10 16 10 9 29 -13 39
-26 11 -36 44 -18 55 23 14 60 6 60 -12z m118 -1 c2 -10 -1 -17 -7 -17 -6 0
-11 5 -11 10 0 6 -9 10 -20 10 -29 0 -25 -17 8 -32 19 -9 27 -21 27 -38 0 -22
-5 -25 -37 -27 -31 -1 -38 2 -38 18 0 10 5 19 10 19 6 0 10 -4 10 -10 0 -5 9
-10 20 -10 27 0 25 16 -2 31 -31 16 -38 30 -27 51 12 23 63 19 67 -5z m232 13
c0 -5 -11 -10 -25 -10 -16 0 -25 -6 -25 -15 0 -8 9 -15 20 -15 11 0 20 -4 20
-10 0 -5 -9 -10 -20 -10 -11 0 -20 -7 -20 -15 0 -9 9 -15 25 -15 14 0 25 -4
25 -10 0 -5 -16 -10 -35 -10 l-35 0 0 60 0 60 35 0 c19 0 35 -4 35 -10z m71
-37 c12 -44 13 -45 22 -22 24 64 28 71 33 66 9 -9 -29 -117 -42 -117 -6 0 -17
20 -23 44 -6 24 -13 51 -17 60 -3 9 -2 16 4 16 5 0 15 -21 23 -47z m169 37 c0
-5 -11 -10 -24 -10 -13 0 -26 -7 -30 -15 -4 -11 1 -15 19 -15 14 0 25 -4 25
-10 0 -5 -9 -10 -20 -10 -11 0 -20 -7 -20 -15 0 -9 9 -15 25 -15 14 0 25 -4
25 -10 0 -5 -16 -10 -35 -10 l-35 0 0 60 0 60 35 0 c19 0 35 -4 35 -10z m101
0 c22 -13 25 -48 4 -56 -12 -5 -12 -9 2 -30 9 -14 11 -24 5 -24 -6 0 -16 9
-22 20 -6 11 -15 20 -20 20 -6 0 -10 -9 -10 -20 0 -11 -4 -20 -10 -20 -11 0
-14 103 -3 113 9 10 31 9 54 -3z m89 -10 c0 -11 5 -20 10 -20 6 0 10 9 10 20
0 11 7 20 15 20 19 0 19 -2 -2 -45 -14 -29 -15 -40 -5 -56 11 -17 9 -19 -18
-19 -30 0 -41 15 -17 23 12 4 10 13 -18 80 -5 12 -2 17 9 17 9 0 16 -8 16 -20z
m230 -8 c0 -13 5 -12 20 8 10 14 22 21 26 17 4 -4 -1 -16 -11 -27 -18 -20 -18
-22 -1 -51 10 -17 15 -33 11 -37 -4 -4 -10 -2 -12 4 -2 6 -10 20 -18 30 -14
18 -14 18 -15 -8 0 -16 -4 -28 -10 -28 -6 0 -10 27 -10 61 0 37 4 58 10 54 6
-3 10 -14 10 -23z m134 -4 c14 -33 14 -33 15 -6 1 15 6 30 11 33 6 4 10 -17
10 -54 0 -68 -13 -78 -34 -28 l-14 32 -1 -32 c-2 -60 -21 -34 -21 27 0 67 13
77 34 28z m154 0 c24 -51 -24 -110 -63 -78 -18 15 -20 81 -3 98 20 20 52 10
66 -20z m63 -11 c1 -18 3 -24 6 -14 5 20 19 23 26 5 3 -7 8 2 12 20 9 40 29
43 21 2 -3 -16 -9 -43 -12 -60 -6 -32 -24 -41 -24 -12 -1 15 -2 15 -15 -2 -20
-26 -23 -20 -31 49 -5 43 -4 56 4 51 7 -4 13 -22 13 -39z m119 -7 c0 -46 2
-50 24 -50 14 0 28 -4 31 -10 4 -6 -10 -10 -34 -10 l-41 0 0 60 c0 33 4 60 10
60 6 0 10 -22 10 -50z m170 40 c0 -5 -11 -10 -25 -10 -16 0 -25 -6 -25 -15 0
-8 9 -15 20 -15 11 0 20 -4 20 -10 0 -5 -9 -10 -20 -10 -11 0 -20 -7 -20 -15
0 -9 9 -15 25 -15 14 0 25 -4 25 -10 0 -5 -16 -10 -35 -10 l-35 0 0 60 0 60
35 0 c19 0 35 -4 35 -10z m108 -6 c44 -30 20 -104 -34 -104 -23 0 -24 3 -24
60 0 66 13 76 58 44z m138 3 c3 -3 4 -14 0 -23 -6 -16 -8 -16 -20 1 -21 29
-48 12 -44 -27 2 -25 8 -34 26 -36 12 -2 22 1 22 7 0 6 -4 11 -10 11 -5 0 -10
5 -10 10 0 6 9 10 20 10 22 0 25 -12 10 -41 -6 -11 -21 -19 -35 -19 -42 0 -62
72 -29 105 15 15 56 16 70 2z m114 3 c0 -5 -13 -10 -30 -10 -20 0 -30 -5 -30
-15 0 -9 9 -15 25 -15 14 0 25 -4 25 -10 0 -5 -11 -10 -25 -10 -16 0 -25 -6
-25 -15 0 -10 10 -15 30 -15 17 0 30 -4 30 -10 0 -5 -18 -10 -40 -10 l-40 0 0
53 c0 30 3 57 7 60 10 11 73 8 73 -3z m-2540 -320 c0 -5 -4 -10 -10 -10 -5 0
-10 5 -10 10 0 6 5 10 10 10 6 0 10 -4 10 -10z m40 0 c0 -5 -4 -10 -10 -10 -5
0 -10 5 -10 10 0 6 5 10 10 10 6 0 10 -4 10 -10z m40 0 c0 -5 -4 -10 -10 -10
-5 0 -10 5 -10 10 0 6 5 10 10 10 6 0 10 -4 10 -10z m40 0 c0 -5 -4 -10 -10
-10 -5 0 -10 5 -10 10 0 6 5 10 10 10 6 0 10 -4 10 -10z m40 0 c0 -5 -4 -10
-10 -10 -5 0 -10 5 -10 10 0 6 5 10 10 10 6 0 10 -4 10 -10z m40 0 c0 -5 -4
-10 -10 -10 -5 0 -10 5 -10 10 0 6 5 10 10 10 6 0 10 -4 10 -10z m40 0 c0 -5
-4 -10 -10 -10 -5 0 -10 5 -10 10 0 6 5 10 10 10 6 0 10 -4 10 -10z m40 0 c0
-5 -4 -10 -10 -10 -5 0 -10 5 -10 10 0 6 5 10 10 10 6 0 10 -4 10 -10z m40 0
c0 -5 -4 -10 -10 -10 -5 0 -10 5 -10 10 0 6 5 10 10 10 6 0 10 -4 10 -10z m40
0 c0 -5 -4 -10 -10 -10 -5 0 -10 5 -10 10 0 6 5 10 10 10 6 0 10 -4 10 -10z
m40 0 c0 -5 -4 -10 -10 -10 -5 0 -10 5 -10 10 0 6 5 10 10 10 6 0 10 -4 10
-10z m40 0 c0 -5 -4 -10 -10 -10 -5 0 -10 5 -10 10 0 6 5 10 10 10 6 0 10 -4
10 -10z m40 0 c0 -5 -4 -10 -10 -10 -5 0 -10 5 -10 10 0 6 5 10 10 10 6 0 10
-4 10 -10z m40 0 c0 -5 -4 -10 -10 -10 -5 0 -10 5 -10 10 0 6 5 10 10 10 6 0
10 -4 10 -10z m40 0 c0 -5 -4 -10 -10 -10 -5 0 -10 5 -10 10 0 6 5 10 10 10 6
0 10 -4 10 -10z m40 0 c0 -5 -4 -10 -10 -10 -5 0 -10 5 -10 10 0 6 5 10 10 10
6 0 10 -4 10 -10z m40 0 c0 -5 -4 -10 -10 -10 -5 0 -10 5 -10 10 0 6 5 10 10
10 6 0 10 -4 10 -10z m40 0 c0 -5 -4 -10 -10 -10 -5 0 -10 5 -10 10 0 6 5 10
10 10 6 0 10 -4 10 -10z m40 0 c0 -5 -4 -10 -10 -10 -5 0 -10 5 -10 10 0 6 5
10 10 10 6 0 10 -4 10 -10z m40 0 c0 -5 -4 -10 -10 -10 -5 0 -10 5 -10 10 0 6
5 10 10 10 6 0 10 -4 10 -10z m40 0 c0 -5 -4 -10 -10 -10 -5 0 -10 5 -10 10 0
6 5 10 10 10 6 0 10 -4 10 -10z m40 0 c0 -5 -4 -10 -10 -10 -5 0 -10 5 -10 10
0 6 5 10 10 10 6 0 10 -4 10 -10z m40 0 c0 -5 -4 -10 -10 -10 -5 0 -10 5 -10
10 0 6 5 10 10 10 6 0 10 -4 10 -10z m40 0 c0 -5 -4 -10 -10 -10 -5 0 -10 5
-10 10 0 6 5 10 10 10 6 0 10 -4 10 -10z m40 0 c0 -5 -4 -10 -10 -10 -5 0 -10
5 -10 10 0 6 5 10 10 10 6 0 10 -4 10 -10z m40 0 c0 -5 -4 -10 -10 -10 -5 0
-10 5 -10 10 0 6 5 10 10 10 6 0 10 -4 10 -10z m40 0 c0 -5 -4 -10 -10 -10 -5
0 -10 5 -10 10 0 6 5 10 10 10 6 0 10 -4 10 -10z m40 0 c0 -5 -4 -10 -10 -10
-5 0 -10 5 -10 10 0 6 5 10 10 10 6 0 10 -4 10 -10z m40 0 c0 -5 -4 -10 -10
-10 -5 0 -10 5 -10 10 0 6 5 10 10 10 6 0 10 -4 10 -10z m40 0 c0 -5 -4 -10
-10 -10 -5 0 -10 5 -10 10 0 6 5 10 10 10 6 0 10 -4 10 -10z m40 0 c0 -5 -4
-10 -10 -10 -5 0 -10 5 -10 10 0 6 5 10 10 10 6 0 10 -4 10 -10z m40 0 c0 -5
-4 -10 -10 -10 -5 0 -10 5 -10 10 0 6 5 10 10 10 6 0 10 -4 10 -10z m40 0 c0
-5 -4 -10 -10 -10 -5 0 -10 5 -10 10 0 6 5 10 10 10 6 0 10 -4 10 -10z m40 0
c0 -5 -4 -10 -10 -10 -5 0 -10 5 -10 10 0 6 5 10 10 10 6 0 10 -4 10 -10z m40
0 c0 -5 -4 -10 -10 -10 -5 0 -10 5 -10 10 0 6 5 10 10 10 6 0 10 -4 10 -10z
m40 0 c0 -5 -4 -10 -10 -10 -5 0 -10 5 -10 10 0 6 5 10 10 10 6 0 10 -4 10
-10z m40 0 c0 -5 -4 -10 -10 -10 -5 0 -10 5 -10 10 0 6 5 10 10 10 6 0 10 -4
10 -10z m40 0 c0 -5 -4 -10 -10 -10 -5 0 -10 5 -10 10 0 6 5 10 10 10 6 0 10
-4 10 -10z m40 0 c0 -5 -4 -10 -10 -10 -5 0 -10 5 -10 10 0 6 5 10 10 10 6 0
10 -4 10 -10z m40 0 c0 -5 -4 -10 -10 -10 -5 0 -10 5 -10 10 0 6 5 10 10 10 6
0 10 -4 10 -10z m40 0 c0 -5 -4 -10 -10 -10 -5 0 -10 5 -10 10 0 6 5 10 10 10
6 0 10 -4 10 -10z m40 0 c0 -5 -4 -10 -10 -10 -5 0 -10 5 -10 10 0 6 5 10 10
10 6 0 10 -4 10 -10z m40 0 c0 -5 -4 -10 -10 -10 -5 0 -10 5 -10 10 0 6 5 10
10 10 6 0 10 -4 10 -10z m40 0 c0 -5 -4 -10 -10 -10 -5 0 -10 5 -10 10 0 6 5
10 10 10 6 0 10 -4 10 -10z m40 0 c0 -5 -4 -10 -10 -10 -5 0 -10 5 -10 10 0 6
5 10 10 10 6 0 10 -4 10 -10z m40 0 c0 -5 -4 -10 -10 -10 -5 0 -10 5 -10 10 0
6 5 10 10 10 6 0 10 -4 10 -10z m40 0 c0 -5 -4 -10 -10 -10 -5 0 -10 5 -10 10
0 6 5 10 10 10 6 0 10 -4 10 -10z m40 0 c0 -5 -4 -10 -10 -10 -5 0 -10 5 -10
10 0 6 5 10 10 10 6 0 10 -4 10 -10z m40 0 c0 -5 -4 -10 -10 -10 -5 0 -10 5
-10 10 0 6 5 10 10 10 6 0 10 -4 10 -10z m40 0 c0 -5 -4 -10 -10 -10 -5 0 -10
5 -10 10 0 6 5 10 10 10 6 0 10 -4 10 -10z m40 0 c0 -5 -4 -10 -10 -10 -5 0
-10 5 -10 10 0 6 5 10 10 10 6 0 10 -4 10 -10z m40 0 c0 -5 -4 -10 -10 -10 -5
0 -10 5 -10 10 0 6 5 10 10 10 6 0 10 -4 10 -10z m40 0 c0 -5 -4 -10 -10 -10
-5 0 -10 5 -10 10 0 6 5 10 10 10 6 0 10 -4 10 -10z m40 0 c0 -5 -4 -10 -10
-10 -5 0 -10 5 -10 10 0 6 5 10 10 10 6 0 10 -4 10 -10z m40 0 c0 -5 -4 -10
-10 -10 -5 0 -10 5 -10 10 0 6 5 10 10 10 6 0 10 -4 10 -10z m40 0 c0 -5 -4
-10 -10 -10 -5 0 -10 5 -10 10 0 6 5 10 10 10 6 0 10 -4 10 -10z m40 0 c0 -5
-4 -10 -10 -10 -5 0 -10 5 -10 10 0 6 5 10 10 10 6 0 10 -4 10 -10z m40 0 c0
-5 -4 -10 -10 -10 -5 0 -10 5 -10 10 0 6 5 10 10 10 6 0 10 -4 10 -10z m40 0
c0 -5 -4 -10 -10 -10 -5 0 -10 5 -10 10 0 6 5 10 10 10 6 0 10 -4 10 -10z m40
0 c0 -5 -4 -10 -10 -10 -5 0 -10 5 -10 10 0 6 5 10 10 10 6 0 10 -4 10 -10z
m40 0 c0 -5 -4 -10 -10 -10 -5 0 -10 5 -10 10 0 6 5 10 10 10 6 0 10 -4 10
-10z m40 0 c0 -5 -4 -10 -10 -10 -5 0 -10 5 -10 10 0 6 5 10 10 10 6 0 10 -4
10 -10z m40 0 c0 -5 -4 -10 -10 -10 -5 0 -10 5 -10 10 0 6 5 10 10 10 6 0 10
-4 10 -10z m40 0 c0 -5 -4 -10 -10 -10 -5 0 -10 5 -10 10 0 6 5 10 10 10 6 0
10 -4 10 -10z m40 0 c0 -5 -4 -10 -10 -10 -5 0 -10 5 -10 10 0 6 5 10 10 10 6
0 10 -4 10 -10z"/>
<path d="M1968 2984 c-5 -4 -8 -36 -8 -71 l0 -63 81 0 c106 0 139 17 139 71 0
45 -31 62 -123 67 -45 2 -85 1 -89 -4z"/>
<path d="M1960 2700 l0 -70 90 0 c49 0 101 5 115 12 46 21 46 95 0 116 -14 7
-66 12 -115 12 l-90 0 0 -70z"/>
<path d="M2493 2850 c-42 -25 -53 -48 -53 -110 0 -46 4 -56 34 -86 29 -29 41
-34 80 -34 66 0 107 38 113 106 11 112 -84 180 -174 124z"/>
<path d="M2961 2857 c-84 -43 -89 -181 -9 -223 36 -19 98 -18 126 2 70 48 68
170 -3 214 -37 23 -79 25 -114 7z"/>
<path d="M2213 2330 c-24 -10 -43 -39 -43 -68 0 -33 38 -72 71 -72 64 0 92 78
44 125 -26 27 -37 29 -72 15z"/>
<path d="M2710 2320 c-33 -33 -24 -40 45 -40 37 0 65 4 65 10 0 19 -40 50 -65
50 -14 0 -34 -9 -45 -20z"/>
<path d="M3507 2320 c-50 -40 -25 -130 36 -130 40 0 67 27 67 69 0 69 -53 100
-103 61z"/>
<path d="M1845 1997 c-4 -10 -5 -21 -1 -24 10 -10 18 4 13 24 -4 17 -4 17 -12
0z"/>
<path d="M3012 2013 c2 -10 10 -18 18 -18 8 0 16 8 18 18 2 12 -3 17 -18 17
-15 0 -20 -5 -18 -17z"/>
<path d="M3607 2023 c-4 -3 -7 -21 -7 -40 0 -26 4 -33 19 -33 22 0 35 30 26
60 -6 20 -25 26 -38 13z"/>
<path d="M4080 1990 c0 -34 3 -41 18 -38 12 2 17 13 17 38 0 25 -5 36 -17 38
-15 3 -18 -4 -18 -38z"/>
</g>
</svg>
